<svg width="128" height="128" viewBox="0 0 128 128" fill="none" xmlns="http://www.w3.org/2000/svg">
  <defs>
    <linearGradient id="g" x1="24" y1="20" x2="104" y2="110" gradientUnits="userSpaceOnUse">
      <stop stop-color="#ff2a4f"/>
      <stop offset="1" stop-color="#b0122e"/>
    </linearGradient>
  </defs>
  <rect x="10" y="10" width="108" height="108" rx="28" fill="rgba(255,255,255,0.06)" stroke="rgba(255,255,255,0.10)"/>
  <path d="M41 78c6 10 18 18 33 18 17 0 31-11 31-26 0-13-11-22-23-22-4 0-7 1-10 3-4-10-13-17-25-17-15 0-27 11-27 25 0 7 3 14 8 19l13-5z" fill="url(#g)"/>
  <path d="M72 48c6 0 11 5 11 11 0 6-5 11-11 11-6 0-11-5-11-11 0-6 5-11 11-11z" fill="rgba(0,0,0,0.35)"/>
  <path d="M70 55h4v9h-4z" fill="rgba(255,255,255,0.65)"/>
  <circle cx="52" cy="60" r="4" fill="rgba(0,0,0,0.35)"/>
  <circle cx="52" cy="60" r="1.6" fill="rgba(255,255,255,0.65)"/>
</svg>
